<?xml version="1.0" standalone="no"?><!DOCTYPE svg PUBLIC "-//W3C//DTD SVG 1.1//EN" "http://www.w3.org/Graphics/SVG/1.1/DTD/svg11.dtd"><svg class="icon" width="64px" height="64.00px" viewBox="0 0 1024 1024" version="1.1" xmlns="http://www.w3.org/2000/svg"><path fill="#ffffff" d="M977.792 0 46.208 0C20.736 0 0 20.672 0 46.144l0 931.712C0 1003.264 20.736 1024 46.208 1024l931.584 0C1003.264 1024 1024 1003.264 1024 977.856L1024 46.144C1024 20.672 1003.264 0 977.792 0zM690.688 512c0 98.688-80 178.688-178.688 178.688S333.312 610.688 333.312 512c0-98.688 80-178.688 178.688-178.688S690.688 413.312 690.688 512zM896 896 128 896 128 448l84.288 0C207.872 468.672 205.312 490.048 205.312 512c0 169.088 137.6 306.688 306.688 306.688s306.688-137.6 306.688-306.688c0-21.952-2.56-43.328-6.976-64L896 448 896 896zM896 320l-192 0L704 128l192 0L896 320z" /></svg>