<?xml version="1.0" standalone="no"?><!DOCTYPE svg PUBLIC "-//W3C//DTD SVG 1.1//EN" "http://www.w3.org/Graphics/SVG/1.1/DTD/svg11.dtd"><svg class="icon" width="64px" height="64.00px" viewBox="0 0 1024 1024" version="1.1" xmlns="http://www.w3.org/2000/svg"><path fill="#ffffff" d="M1023.936008 194.432c-37.691289 16.704-78.134233 28.032-120.624922 33.088 43.386577-25.984 76.598425-67.2 92.340457-116.16-40.634921 24.064-85.621297 41.536-133.487314 51.008C823.897013 121.472 769.311836 96 708.903387 96c-116.017498 0-210.085739 94.08-210.085739 210.048 0 16.448 1.855768 32.512 5.43932 47.872C329.686789 345.152 174.890139 261.504 71.287089 134.4 53.177353 165.376 42.874641 201.472 42.874641 240c0 72.896 37.115361 137.216 93.428321 174.848C101.875266 413.696 69.495313 404.224 41.146857 388.48l0 2.624c0 101.76 72.438945 186.688 168.490939 206.016C192.039995 601.856 173.482315 604.48 154.284714 604.48c-13.566304 0-26.684664-1.344-39.547057-3.84 26.748656 83.456 104.306962 144.192 196.199475 145.92-71.863017 56.32-162.475691 89.856-260.895388 89.856-16.95788 0-33.659793-1.024-50.105737-2.88C92.916385 893.184 203.302587 928 321.943757 928c386.383702 0 597.685289-320.128 597.685289-597.76L918.925134 303.04C960.135983 273.536 995.84352 236.544 1023.936008 194.432z" /></svg>