<?xml version="1.0" standalone="no"?><!DOCTYPE svg PUBLIC "-//W3C//DTD SVG 1.1//EN" "http://www.w3.org/Graphics/SVG/1.1/DTD/svg11.dtd"><svg class="icon" width="64px" height="64.00px" viewBox="0 0 1024 1024" version="1.1" xmlns="http://www.w3.org/2000/svg"><path fill="#ffffff" d="M667.2 307.8c-67.2 0-95.6 33-142.4 33-48 0-84.6-32.8-142.8-32.8-57 0-117.8 35.8-156.4 96.8-54.2 86-45 248 42.8 386 31.4 49.4 73.4 104.8 128.4 105.4 0.4 0 0.6 0 1 0 47.8 0 62-32.2 127.8-32.6 0.4 0 0.6 0 1 0 64.8 0 77.8 32.4 125.4 32.4 0.4 0 0.6 0 1 0 55-0.6 99.2-62 130.6-111.2 22.6-35.4 31-53.2 48.4-93.2-127-49.6-147.4-234.8-21.8-305.8C771.8 336.4 718 307.8 667.2 307.8L667.2 307.8zM652.4 128c-40 2.8-86.6 29-114 63.2-24.8 31-45.2 77-37.2 121.6 1 0 2 0 3.2 0 42.6 0 86.2-26.4 111.6-60.2C640.6 220.4 659.2 174.8 652.4 128L652.4 128z" /></svg>