<?xml version="1.0" standalone="no"?><!DOCTYPE svg PUBLIC "-//W3C//DTD SVG 1.1//EN" "http://www.w3.org/Graphics/SVG/1.1/DTD/svg11.dtd"><svg class="icon" width="64px" height="64.00px" viewBox="0 0 1024 1024" version="1.1" xmlns="http://www.w3.org/2000/svg"><path fill="#ffffff" d="M857.6 80 166.4 80C118.9 80 80 118.9 80 166.8l0 690.4c0 47.9 38.9 86.8 86.4 86.8l691.2 0c47.5 0 86.4-38.9 86.4-86.8L944 166.8C944 118.9 905.1 80 857.6 80zM814.4 166.8l0 129.5L728 296.3c-25.9 0-43.2 16.8-43.2 42.7l0 86.8 129.6 0 0 129.5L684.8 555.3l0 301.8L555.2 857.1 555.2 555.4l-86.4 0L468.8 425.9l86.4 0L555.2 317.7c0-82.3 69.1-150.9 151.2-150.9L814.4 166.8z" /></svg>