<?xml version="1.0" standalone="no"?><!DOCTYPE svg PUBLIC "-//W3C//DTD SVG 1.1//EN" "http://www.w3.org/Graphics/SVG/1.1/DTD/svg11.dtd"><svg class="icon" width="64px" height="64.00px" viewBox="0 0 1024 1024" version="1.1" xmlns="http://www.w3.org/2000/svg"><path fill="#ffffff" d="M288 536.8 288 716c0 13.8 9 28 22.8 28L368 744l0 104c0 26.6 21.4 48 48 48s48-21.4 48-48l0-104 98 0 0 104c0 15 6.8 28.4 17.6 37.2 7.8 6.8 18.2 10.8 29.4 10.8 0.2 0 0.4 0 0.6 0 0.2 0 0.2 0 0.4 0 26.6 0 48-21.4 48-48l0-104 55.2 0c14 0 22.8-14.2 22.8-27.8l0-179.2L736 384 288 384 288 536.8zM816 352c-26.6 0-48 21.4-48 48l0 192c0 26.6 21.4 48 48 48s48-21.4 48-48l0-192C864 373.4 842.6 352 816 352zM208 352c-26.6 0-48 21.4-48 48l0 192c0 26.6 21.4 48 48 48s48-21.4 48-48l0-192C256 373.4 234.6 352 208 352zM622.4 178.2l37-43.8c0.8-1-0.4-3.2-2.6-5-2.2-1.6-4.8-2-5.4-0.8l-38.4 45.6c-27.2-10.8-60.4-17.6-101.2-17.6-41-0.2-74.4 6.4-101.6 17l-38-44.8c-0.8-1-3.2-0.8-5.4 0.8-2.2 1.6-3.4 3.6-2.6 5l36.6 43.2c-96.4 41.8-110.8 144.4-112.8 174.4l447.2 0C733.4 322 719.2 220.8 622.4 178.2zM413.6 277.8c-14.8 0-27-12-27-26.6 0-14.6 12-26.6 27-26.6 14.8 0 27 12 27 26.6C440.6 265.8 428.6 277.8 413.6 277.8zM610.4 277.8c-14.8 0-27-12-27-26.6 0-14.6 12-26.6 27-26.6 14.8 0 27 12 27 26.6C637.4 265.8 625.2 277.8 610.4 277.8z" /></svg>