<?xml version="1.0" standalone="no"?><!DOCTYPE svg PUBLIC "-//W3C//DTD SVG 1.1//EN" "http://www.w3.org/Graphics/SVG/1.1/DTD/svg11.dtd"><svg class="icon" width="64px" height="64.00px" viewBox="0 0 1024 1024" version="1.1" xmlns="http://www.w3.org/2000/svg"><path fill="#ffffff" d="M652.8 364.8c57.6 38.4 96 102.4 102.4 179.2 19.2 0 38.4 6.4 57.6 12.8-6.4-102.4-57.6-192-140.8-243.2C665.6 326.4 665.6 345.6 652.8 364.8zM614.4 787.2c-32 12.8-64 25.6-102.4 25.6-38.4 0-70.4-6.4-102.4-25.6C396.8 806.4 384 819.2 371.2 832c44.8 25.6 89.6 38.4 140.8 38.4 51.2 0 102.4-12.8 140.8-38.4C640 819.2 627.2 806.4 614.4 787.2zM268.8 544c6.4-76.8 44.8-140.8 102.4-179.2C364.8 345.6 358.4 326.4 352 307.2 268.8 358.4 217.6 454.4 211.2 556.8 230.4 550.4 249.6 544 268.8 544zM275.2 640c38.4 0 64 25.6 64 64s-25.6 64-64 64-64-25.6-64-64S236.8 640 275.2 640M275.2 576c-70.4 0-128 57.6-128 128s57.6 128 128 128 128-57.6 128-128S345.6 576 275.2 576L275.2 576zM512 224c38.4 0 64 25.6 64 64s-25.6 64-64 64-64-25.6-64-64S480 224 512 224M512 160c-70.4 0-128 57.6-128 128s57.6 128 128 128 128-57.6 128-128S582.4 160 512 160L512 160zM748.8 640c38.4 0 64 25.6 64 64s-25.6 64-64 64-64-25.6-64-64S716.8 640 748.8 640M748.8 576c-70.4 0-128 57.6-128 128s57.6 128 128 128 128-57.6 128-128S819.2 576 748.8 576L748.8 576zM275.2 640c38.4 0 64 25.6 64 64s-25.6 64-64 64-64-25.6-64-64S236.8 640 275.2 640M275.2 576c-70.4 0-128 57.6-128 128s57.6 128 128 128 128-57.6 128-128S345.6 576 275.2 576L275.2 576z" /></svg>