<?xml version="1.0" standalone="no"?><!DOCTYPE svg PUBLIC "-//W3C//DTD SVG 1.1//EN" "http://www.w3.org/Graphics/SVG/1.1/DTD/svg11.dtd"><svg class="icon" width="64px" height="64.00px" viewBox="0 0 1024 1024" version="1.1" xmlns="http://www.w3.org/2000/svg"><path fill="#ffffff" d="M0.384 0l0 196.352C456.192 196.352 827.136 567.68 827.136 1024L1024 1024C1024 459.52 564.736 0 0.384 0zM478.848 1024l197.12 0c0.064-372.864-303.232-676.16-675.84-676.16l0 196.288c127.808 0 247.936 49.984 338.432 140.544C428.928 774.976 478.848 895.68 478.848 1024zM136.32 1022.72c75.456 0 136.512-60.672 136.512-135.808-0.064-74.688-61.056-136.064-136.512-136.064C61.12 750.848 0 812.16 0 886.912 0 962.048 61.12 1022.72 136.32 1022.72z" /></svg>